<svg xmlns="http://www.w3.org/2000/svg" width="177" height="52" fill="none" viewBox="0 0 177 52"><path fill="#fff" d="M7.791 23.383 10.445 22.074 14.64 15.792 15.924 15.269 17.294 21.638 15.496 21.899 14.126 19.282 13.099 23.383H17.636L22.345 24.604 24.228 23.383 27.396 26.698 28.766 20.591 30.992 22.859 32.362 20.94 34.587 20.329 37.841 17.275 38.354 15.792 41.008 16.228 42.121 17.711 40.152 21.899 45.032 19.369V18.148L46.916 17.711 48.97 19.805 51.025 17.275V15.53L54.364 13.175 55.734 11.168H57.874L61.641 3.403 64.894 0 66.093 1.919 64.209 4.362 64.894 5.933 66.692 6.282 68.147 12.738V18.148L70.716 21.725 72 26.698 67.548 23.819 65.579 15.53 64.381 15.792 64.209 21.376 60.956 26.698 60.014 34.812 62.24 35.336 63.182 34.201 65.322 36.644 66.949 43.973 66.778 48.685H64.723L63.952 42.054 62.497 44.06 59.329 43.362 56.761 41.181 53.85 42.228 54.021 46.94 51.71 47.55 48.285 50.168 44.176 49.644 42.549 48.685 39.981 49.121 40.837 50.168 38.782 51.389 37.156 50.604 34.074 52 29.365 49.644 27.567 45.456 26.026 45.631 24.228 44.148 24.143 43.013 18.407 42.403 17.465 45.544 13.869 43.886 12.071 40.832H8.219L7.791 45.718 5.565 46.416 4.452 50.866 3.596 50.081 0 40.745 4.281 38.651 3.596 34.55 2.911 30.362 4.794 27.658 4.195 26 6.763 23.208 7.791 23.383ZM64.723 33.678 68.661 39.611 69.945 39.087 68.319 36.644 64.723 32.805V33.678ZM24.485 21.638V19.893L27.482 17.711 30.05 16.403H27.054L24.4 17.973 22.773 19.456V21.638H24.485ZM90.125 41H94.864V35.819H97.489C101.469 35.819 104.136 33.475 104.136 29.716 104.136 26 101.537 23.546 97.659 23.546H90.125V41ZM94.864 32.137V27.33H96.534C98.196 27.33 99.193 28.216 99.193 29.716 99.193 31.208 98.196 32.137 96.534 32.137H94.864ZM111.969 41.239C116.23 41.239 118.753 38.512 118.753 34.489 118.753 30.466 116.23 27.739 111.969 27.739 107.707 27.739 105.185 30.466 105.185 34.489 105.185 38.512 107.707 41.239 111.969 41.239ZM112.003 37.762C110.741 37.762 109.991 36.509 109.991 34.455 109.991 32.401 110.741 31.148 112.003 31.148 113.196 31.148 113.946 32.401 113.946 34.455 113.946 36.509 113.196 37.762 112.003 37.762ZM126.969 41.239C130.847 41.239 133.224 39.015 133.276 35.546H128.912C128.81 36.918 128.068 37.66 127.037 37.66 125.801 37.66 124.991 36.603 124.991 34.455 124.991 32.307 125.801 31.25 127.037 31.25 128.077 31.25 128.784 31.992 128.912 33.364H133.276C133.25 29.955 130.821 27.739 126.969 27.739 122.707 27.739 120.185 30.466 120.185 34.489 120.185 38.512 122.707 41.239 126.969 41.239ZM141.523 41.239C145.401 41.239 147.779 39.015 147.83 35.546H143.467C143.364 36.918 142.623 37.66 141.592 37.66 140.356 37.66 139.546 36.603 139.546 34.455 139.546 32.307 140.356 31.25 141.592 31.25 142.631 31.25 143.339 31.992 143.467 33.364H147.83C147.805 29.955 145.376 27.739 141.523 27.739 137.262 27.739 134.739 30.466 134.739 34.489 134.739 38.512 137.262 41.239 141.523 41.239ZM154.203 35V27.91H149.771V41H154.203L157.851 33.875V41H162.283V27.91H157.851L154.203 35ZM172.212 41H176.575V27.91H170.439C166.663 27.91 164.277 29.819 164.303 32.478 164.286 33.969 165.18 35.205 166.749 35.938L164.166 41H168.496L170.703 36.671H172.212V41ZM172.212 33.841H170.541C169.288 33.841 168.709 33.228 168.734 32.648 168.709 32.103 169.254 31.421 170.439 31.421H172.212V33.841Z"/></svg>